 <svg  version="1.0" xmlns="http://www.w3.org/2000/svg"  width="226.000000pt" height="223.000000pt" viewBox="0 0 226.000000 223.000000"  preserveAspectRatio="xMidYMid meet">  <g transform="translate(0.000000,223.000000) scale(0.100000,-0.100000)" fill="#fc0000" stroke="none"> <path d="M418 1498 c-1 -403 -2 -831 -3 -950 0 -120 0 -218 0 -218 0 1 337 174 520 267 l251 126 69 -40 c39 -23 183 -103 320 -179 138 -75 262 -146 278 -156 l27 -19 0 950 c0 839 -2 951 -15 951 -13 0 -15 -108 -15 -915 0 -725 -3 -915 -12 -915 -7 0 -40 15 -73 33 -146 81 -181 100 -190 107 -5 4 -39 23 -75 43 -36 19 -114 62 -175 96 -71 39 -122 61 -143 61 -23 0 -135 -52 -377 -175 -189 -96 -346 -171 -350 -166 -3 6 -5 419 -5 920 0 800 -2 911 -15 911 -13 0 -15 -92 -17 -732z"/> <path d="M621 1766 c-50 -18 -64 -44 -45 -81 15 -30 15 -96 -1 -156 -6 -24 -3 -28 30 -39 23 -8 53 -10 79 -5 47 9 82 8 147 -1 33 -4 55 -1 78 10 28 15 34 15 61 1 42 -22 102 -19 134 6 24 19 25 22 11 42 -16 23 -21 127 -6 127 11 0 81 -133 81 -153 0 -9 -20 -30 -45 -47 -27 -19 -45 -39 -45 -50 0 -17 -7 -20 -45 -20 -46 0 -84 -24 -97 -61 -4 -11 -10 -10 -29 8 -55 50 -149 68 -234 44 -44 -12 -107 -66 -131 -112 -19 -38 -25 -115 -13 -170 33 -147 230 -218 356 -130 27 20 49 29 51 22 12 -37 42 -56 86 -56 60 0 78 19 84 89 3 41 9 57 22 61 34 11 47 -4 52 -61 6 -65 21 -84 76 -91 34 -5 44 -1 66 20 18 18 26 37 26 62 0 19 3 35 8 35 4 0 19 -15 34 -34 15 -19 52 -46 83 -61 47 -23 65 -27 119 -23 70 4 131 36 163 84 15 23 15 29 2 53 -8 14 -31 34 -51 44 -37 18 -37 18 -81 -7 -54 -32 -62 -32 -92 -1 -33 32 -34 86 -2 115 24 23 47 23 104 -1 28 -11 37 -11 65 3 18 8 39 27 47 41 12 23 11 29 -9 57 -55 77 -210 96 -295 37 -16 -12 -45 -37 -62 -57 l-33 -35 0 38 c0 51 -35 87 -85 87 -20 0 -35 5 -35 12 0 18 109 240 136 275 30 40 30 58 -1 79 -18 11 -36 14 -62 10 -44 -8 -59 -8 -134 0 -40 4 -65 1 -86 -9 -24 -13 -31 -13 -48 -1 -25 18 -65 18 -115 -2 -39 -16 -43 -15 -75 2 -30 16 -39 16 -90 4 -44 -11 -61 -11 -76 -2 -23 14 -34 14 -78 -2z m75 -37 c-3 -17 -2 -29 2 -27 101 52 121 58 146 47 14 -7 28 -21 32 -31 5 -18 6 -18 37 1 18 10 49 24 70 29 35 10 41 9 63 -13 22 -22 24 -33 24 -109 0 -76 2 -85 20 -91 42 -13 17 -25 -55 -25 -41 0 -75 3 -75 8 0 4 9 15 20 25 16 13 20 29 20 73 0 93 -24 113 -87 74 -31 -18 -33 -23 -33 -75 0 -42 5 -60 20 -75 11 -11 20 -22 20 -25 0 -3 -34 -5 -75 -5 -72 0 -97 12 -55 25 18 6 20 15 20 79 0 95 -13 108 -73 79 l-42 -20 3 -66 c3 -55 7 -67 23 -72 42 -14 15 -25 -61 -25 -75 0 -105 11 -60 23 18 5 20 14 20 80 0 68 -2 76 -21 82 -31 10 -18 27 37 46 66 24 67 23 60 -12z m554 6 c0 -8 -7 -15 -15 -15 -8 0 -15 -3 -15 -7 0 -14 44 -113 50 -113 10 0 50 102 44 111 -3 5 -12 9 -20 9 -8 0 -14 7 -14 15 0 12 13 15 55 15 40 0 55 -4 55 -14 0 -8 -7 -16 -15 -20 -8 -3 -51 -77 -95 -166 -84 -168 -110 -199 -145 -170 -25 21 -14 52 22 64 39 13 64 36 65 62 2 30 -81 193 -107 210 -38 25 -21 34 61 34 59 0 74 -3 74 -15z m-472 -115 c3 -52 -9 -76 -32 -67 -11 4 -16 19 -16 46 0 52 9 73 29 69 11 -2 17 -16 19 -48z m184 5 c8 -104 -34 -117 -47 -15 -4 28 15 60 35 60 4 0 10 -20 12 -45z m-126 -260 c42 -12 117 -69 103 -77 -2 -2 -18 -13 -36 -26 -39 -27 -39 -27 -70 -2 -16 12 -41 20 -63 20 -31 0 -44 -6 -65 -32 -24 -28 -27 -38 -23 -87 4 -44 10 -59 32 -78 39 -33 90 -31 126 6 l29 28 38 -25 c21 -14 40 -27 42 -29 9 -7 -55 -66 -86 -79 -45 -19 -130 -17 -178 5 -168 76 -146 327 33 381 41 12 64 11 118 -5z m820 0 c42 -12 117 -69 103 -77 -2 -2 -18 -13 -36 -26 -39 -27 -39 -27 -70 -2 -16 12 -41 20 -63 20 -31 0 -44 -6 -65 -32 -24 -28 -27 -38 -23 -87 4 -44 10 -59 32 -78 39 -33 90 -31 126 6 l29 28 38 -25 c21 -14 40 -27 42 -29 9 -7 -55 -66 -86 -79 -45 -19 -130 -17 -178 5 -168 76 -146 327 33 381 41 12 64 11 118 -5z m-556 -70 l0 -75 65 0 65 0 0 75 0 75 55 0 55 0 0 -200 0 -200 -55 0 -55 0 0 80 0 80 -65 0 -65 0 0 -80 0 -80 -55 0 -55 0 0 200 0 200 55 0 55 0 0 -75z m98 8 c-3 -46 -4 -48 -33 -48 -27 0 -30 4 -33 33 -5 49 3 62 38 62 31 0 31 0 28 -47z m-242 -200 c-2 -2 -21 5 -41 16 -22 12 -44 17 -54 12 -9 -4 -33 -15 -54 -24 -44 -20 -72 -11 -87 29 -15 39 -12 66 12 91 24 26 52 29 88 8 36 -20 62 -18 101 8 l34 23 3 -79 c2 -44 1 -81 -2 -84z"/> </g> </svg> 